<?xml version="1.0" ?><svg fill="none" height="24" viewBox="0 0 24 24" width="24" xmlns="http://www.w3.org/2000/svg"><path clip-rule="evenodd" d="M13.5186 7.90983L12 3.23607L10.4814 7.90983C10.2137 8.73388 9.44574 9.2918 8.57929 9.2918L3.66501 9.2918L7.64075 12.1803C8.34172 12.6896 8.63504 13.5924 8.36729 14.4164L6.84869 19.0902L10.8244 16.2016C11.5254 15.6923 12.4746 15.6923 13.1756 16.2016L17.1513 19.0902L15.6327 14.4164C15.365 13.5924 15.6583 12.6896 16.3593 12.1803L20.335 9.2918H15.4207C14.5543 9.2918 13.7863 8.73388 13.5186 7.90983ZM12.9511 2.92705C12.6517 2.00574 11.3483 2.00574 11.0489 2.92705L9.53035 7.60081C9.39647 8.01284 9.01252 8.2918 8.57929 8.2918H3.66501C2.69628 8.2918 2.29351 9.53141 3.07722 10.1008L7.05296 12.9894C7.40345 13.244 7.55011 13.6954 7.41623 14.1074L5.89763 18.7812C5.59828 19.7025 6.65276 20.4686 7.43648 19.8992L11.4122 17.0106C11.7627 16.756 12.2373 16.756 12.5878 17.0106L16.5635 19.8992C17.3472 20.4686 18.4017 19.7025 18.1024 18.7812L16.5838 14.1074C16.4499 13.6954 16.5966 13.244 16.947 12.9894L20.9228 10.1008C21.7065 9.53141 21.3037 8.2918 20.335 8.2918H15.4207C14.9875 8.2918 14.6035 8.01284 14.4697 7.60081L12.9511 2.92705Z" fill="black" fill-rule="evenodd"/></svg>